<svg xmlns="http://www.w3.org/2000/svg" width="1365.333" height="1365.333" viewBox="0 0 1024 1024"><path d="M0 512v512h1024V0H0zm728-305.5c.8.5 2.4 1.1 3.5 1.2 1 .2 2.3.9 2.7 1.6.4.6 1 1.1 1.3.9 1.5-.7 3.5-.1 2.9.9-.4.7-.1 1 .7.7 1.3-.5 8.8 2.7 9.9 4.1.3.4 3.3 2 6.7 3.6 3.3 1.7 5.9 3.3 5.6 3.7-.2.5 0 .8.5.8.9 0 5.2 3.7 16.9 14.6 2.8 2.7 3.9 4.4 3.1 4.7-.7.2-.1.8 1.3 1.2 1.8.4 3.2 1.9 4.4 4.6 1 2.1 2.2 3.6 2.6 3.3.5-.3.9-.1.9.5s1 2 2.3 3.2c1.2 1.2 1.5 1.9.7 1.5-.9-.5-.9-.2.2.7 1 .8 1.5 1.7 1.1 2-.3.4-.2.7.4.7s1.4 1.2 1.7 2.6c.5 1.7 1.2 2.4 2.1 2 .8-.3 1.4-.2 1.3.2-.4 1.1 4.5 11.2 5.4 11.2.4 0 .8.7.8 1.6 0 .8.5 1.2 1 .9.6-.3 1 .3 1 1.3 0 1.1.7 2.5 1.5 3.2.9.7 1.3 2 1 2.9-.3.8-.3 1.3 0 .9.3-.3 1.7.4 3 1.6 1.8 1.6 2.1 2.4 1.3 3.4-.6.7-.7 1.2-.2 1s1.1.2 1.2.7c.2.6.7 1.2 1.2 1.5.4.3 1.7 2.4 2.9 4.7 1.2 2.4 2.6 4.3 3.1 4.3.6 0 1 .9 1 2s.4 2 .9 2 .8.8.7 1.7c-.2 1 .6 2.4 1.6 3.2 1.2.8 1.8 2.1 1.5 3.2-.3 1.2.8 3.1 3.2 5.6 2 2 3 3.4 2.4 3-.9-.5-1.3-.2-1.3.8s.5 1.3 1.2.9c.7-.5.9 0 .6 1.4-.3 1.2 0 2.6.7 3.2.8.6 1.1 2.2.9 3.6-.3 1.5-.1 2.3.5 2 .5-.4.9.6.9 2.2-.1 3.4 2.2 9.2 3.7 9.2.5 0 .1.7-.9 1.5-1.1.8-1.5 1.5-.9 1.5 1.5 0 2.3 7.3.9 8.2-.8.5-.7 1.1.2 2 1.7 1.7 1.5 2.8-.5 2.8-1.7.1-1.7.1 0 1.4 1 .8 1.3 1.6.7 1.8s-1.1 2-1.2 4.1c-.1 2-.5 3.7-1 3.7-.6 0-.8.6-.6 1.2.3.7-.1 2.4-.8 3.7-.7 1.4-1.1 2.8-.8 3.3.3.4.1.8-.5.8s-1.3 1.6-1.7 3.5c-.4 2.1-1 3.2-1.7 2.8-.6-.4-.8 0-.4 1.1.4 1 .3 1.5-.3 1.1-.5-.3-1.2.6-1.6 2-.3 1.3-1 2.2-1.5 1.9s-.9-.1-.9.4-1.5 2.6-3.4 4.6c-3.4 3.6-5.4 4.7-4 2.3.4-.6.4-.9-.1-.5-.4.4-1.3 1.8-1.9 3s-3 3.1-5.3 4.4c-2.3 1.2-4 2.4-3.7 2.6.2.3-.9.6-2.6.7-5.7.3-7 .5-7 1.1 0 .3-.8.6-1.7.6-1 0-3 .3-4.5.7-2.1.5-2.8.3-3.1-1-.3-1-.5-.2-.6 1.7-.2 3.2-.3 3.3-1.5 1.7-.9-1.2-1.6-1.4-2.1-.8-1 1.8-3.5 1.2-3.5-.8 0-1.3-.8-1.8-2.7-1.9-7.9-.2-16.3-2.5-16.3-4.5 0-.5-.4-.5-1-.2-.5.3-1 .1-1-.4 0-.6-.8-1.1-1.9-1.1-1 0-2.4-.7-3.1-1.5s-1.6-1.2-2.1-.9-.9-.3-.9-1.3c0-1.1-.3-1.4-.8-.7-.9 1.4-5.2 0-5.2-1.7 0-.6-.7-.9-1.5-.5-.8.3-1.5.2-1.5-.3s-.9-1.1-2.1-1.4c-1.4-.4-1.8-1-1.4-1.9.6-1 .5-1.1-.6-.1-.7.7-2 1.3-2.9 1.3s-1.1-.3-.5-.8c.6-.4 1.1-1.3 1.3-2.1.3-1.2.1-1.2-1.4 0-1 .8-1.5.9-1.1.2.8-1.3-2.8-3.7-4.2-2.9-.4.3-1.7-.1-2.7-1-1.8-1.4-1.7-1.4.6-.3 2.5 1.2 2.5 1.2.7-.9-1.1-1.2-2.5-1.8-3.5-1.5-.9.4-1.3.2-.9-.4.5-.7-.1-.9-1.5-.5-1.5.4-1.9.2-1.3-.7.5-1 .2-1.1-1.3-.7-1.2.4-2.3.2-2.8-.5q-.6-1.05.3-.6c.5.3 1 .1 1-.6s-.8-1.3-1.8-1.3-1.5.6-1.2 1.6c.2.8-.1.6-.8-.5-1.8-2.9-4.1-4.4-6.6-4.5-1.4 0-2.1-.5-1.8-1.3.6-1.4-4.2-3.9-5.1-2.6-.3.5-1.2.2-2-.6-.9-.8-1.2-2-.8-2.7.5-.8 0-.7-1.1.2-1.7 1.3-1.8 1.3-1.3-.1.4-1 .1-1.6-.5-1.6-3 .1-4.8-.4-4.3-1.1.2-.4-.4-1.4-1.6-2.1-1.6-1-1.9-1-1.3.1.4.7-.2.3-1.2-.9s-2.9-2.5-4.3-2.7-2.7-.5-3-.6c-.3-.2-.8-.2-1.1-.2-.3.1-.5-1-.3-2.4.1-1.3-.2-2.2-.7-1.8-.5.3-1.2-.2-1.5-1.1-.4-1-1.4-1.5-2.5-1.2-1 .3-2.4-.2-3.1-1.2-1.2-1.4-1.1-1.5.5-.2 1.8 1.4 2.2.5.8-1.8-.5-.7-1.4-1-2-.7-.6.4-1.1.3-1.1-.3 0-.5.4-1.1.9-1.3.4-.2-.1-1.2-1.2-2.3s-1.7-1.5-1.3-.8c.3.6.2 1.4-.3 1.7-.5.4-1.2-.3-1.6-1.4s-1-1.8-1.5-1.5c-.4.3-.6-.4-.3-1.5.3-1.2 0-2-.8-2-.7 0-.9-.3-.6-.6.4-.4-.2-1.4-1.2-2.3s-1.7-2.8-1.7-4.3c.1-1.4-.2-2.4-.6-2.2-.4.3-.8 0-.8-.5 0-.6-.4-1.1-1-1.1-1.9 0-4.9-3.9-4.5-5.9.2-1.4-.5-2.3-2.7-3.2-2.5-1-2.7-1.4-1.3-2.1 1.4-.9 1.4-1.2-.8-3.2-1.3-1.2-2.3-3-2.1-3.9.1-.9-.1-1.7-.6-1.7-.4 0-.6-.9-.3-2 .3-1.3 0-2-.8-2-1.1 0-1.1-.2-.1-.8.9-.6.8-1.3-.6-2.8-1.9-2-2.2-2.6-2.2-4.5 0-.5-.4-.8-.9-.4-.5.3-1.2.1-1.5-.4-.4-.5-.1-1.3.5-1.7.8-.5.9-.3.4.7-.5.8-.4 1 0 .6 1.5-1.3 1.5-4.1-.1-6.4-1.8-2.8-1.8-3.3.2-3.3.8 0 1.2-.5.9-1-.4-.6-.9-.8-1.3-.6s-.7-.9-.7-2.4.3-2.6.8-2.3c.7.4.8-.8 1-7 .1-1.5.5-2.7.9-2.7s.8-1.2.8-2.6q0-2.55 1.2-1.8c.7.5.9.2.5-.9-.6-1.6 1.3-6.7 2.5-6.7.4 0 .5-.7.1-1.6-.3-.9-.1-1.9.6-2.3s1.3-1.7 1.4-2.9c0-1.1.4-1.9.7-1.7s1.4-1.8 2.4-4.3c1.1-2.6 2.5-5.4 3.3-6.3.7-.9 1-1.9.6-2.3s.3-.9 1.5-1.3c1.2-.3 2.2-1 2.1-1.7-.4-3.3.1-3.9 1.9-2.5.9.7 1.4 1 1 .5-.7-.8 4.6-6.6 6.1-6.6 1.1 0 8.6-7.2 8.4-8-.1-.4 1-1.3 2.5-2.1s3.3-2 4-2.7c.7-.6 1.7-1.2 2.1-1.2.5 0 3.9-1.7 7.7-3.8 8.5-4.6 16.2-7.6 19.1-7.4 1.2.1 2.4-.2 2.7-.6.6-1.1 8.8-.8 10.6.3M623.7 364.6c-.3.3-1.2.4-1.9.1-.8-.3-.5-.6.6-.6 1.1-.1 1.7.2 1.3.5m12.9 6.6 2.9 3.3-3.2-2.9c-3.1-2.8-3.8-3.6-3-3.6.2 0 1.6 1.5 3.3 3.2M689 370c0 .5-.5 1-1.1 1-.5 0-.7-.5-.4-1 .3-.6.8-1 1.1-1 .2 0 .4.4.4 1m-135.2.6c-.7.6-43 .6-43.7-.1-.2-.3 9.6-.5 21.9-.5s22.1.3 21.8.6m72.6.8c4.1 1.7 7.4 5.8 8 10 1.7 10.5 6.7 39.8 7.5 43.6.6 2.5 1.2 6.1 1.5 8 .5 2.8.4 3-.3 1-1.2-3.5-4.1-16.4-4.1-18.4 0-.9-.4-1.6-.8-1.6-.5 0-.7-1.4-.6-3 .1-1.7-.1-3-.5-3-.3 0-.7-1.2-.7-2.8-.2-5.6-3.4-20.6-4.6-21.3-.9-.6-.9-1.1 0-2.1 1.8-2.2-1.3-6.1-4.1-5.3-2.1.6-2.1.5-.4-.9 1.8-1.4 1.8-1.5-.4-2.6-1.9-1.1-2.1-1-1.6.5.4.9.3 1.5-.3 1.3-.5-.1-.9-.8-.7-1.3.3-1.4-14.6-2.5-15.5-1.1-.6.8-.8.7-.8-.1 0-.7-2-1.3-4.7-1.6-2.7-.2.7-.4 7.5-.5 8.5-.1 13.3.2 15.6 1.2m-184.4 0c0 .2-.9.6-2 .9s-1.8.1-1.4-.4c.5-.9 3.4-1.3 3.4-.5m-100.3 3.8c-.3.8-.6.5-.6-.6-.1-1.1.2-1.7.5-1.3.3.3.4 1.2.1 1.9m96 17.5c-.2 3.7-.3.9-.3-6.2 0-7.2.1-10.2.3-6.8s.2 9.3 0 13m202-15.5c-.3.8-.6.5-.6-.6-.1-1.1.2-1.7.5-1.3.3.3.4 1.2.1 1.9m-299.3 3.7c-.4 1.7-.9 3-1.1 2.7-.3-.2-.2-1.9.2-3.6.9-4.1 1.7-3.3.9.9m301.3 5.3c-.3.7-.5.2-.5-1.2s.2-1.9.5-1.3c.2.7.2 1.9 0 2.5m-303 1c-.3.8-.6.5-.6-.6-.1-1.1.2-1.7.5-1.3.3.3.4 1.2.1 1.9m156.2 5.7c8.2 10.3 8.2 21.8.2 29.9-1.8 1.8-3.8 3.2-4.4 3.2-.7 0 .2-1.2 1.8-2.6 2.1-1.8 2.4-2.4 1-1.9-6 2.1-7.7 2.3-11.2 1.3-5.7-1.5-8.8-4.2-11.8-10.1l-2.7-5.2.6 5 .5 5-1.6-3.5c-2.2-5-2-12.7.5-17.7 1.2-2.3 2.7-4.5 3.3-4.9.8-.5.8-.1 0 1.4-1.5 2.7-1.4 3.5.3 2.9 1-.4 1.5 1 1.8 6.3.6 7.7 2.9 12 7.8 14 4.1 1.7 8.2-.1 10.6-4.5 1.6-3 1.7-4.1.6-10.7-.6-4-1.5-8.3-1.8-9.6-1-3.4 1.1-2.7 4.5 1.7m111.6 8.5c2 6.5 1.9 10.2-.4 15.1-3.2 7-9.5 11.2-15.7 10.2-2.3-.3-2-.4 1.2-.6 2.4 0 5.5-1 7.4-2.4 4.5-3 5.2-5.4.8-2.7-8.7 5.3-19.6-.2-24.6-12.4-1.2-3-1.2-2.9-.7 1.9.4 4.1.2 4.6-.7 3-1.6-2.8-1.4-12.5.4-16 1.9-3.5 6.8-8.4 6.8-6.7 0 .7-.4 1.2-.9 1.2-1.4 0-2.3 3.2-1.1 4.4.5.5 1 3 1 5.3 0 5.3 1.9 9.2 6 12.7 3.9 3.2 7.1 3.3 10.7.2 3.1-2.7 3.5-5.9 2.1-19.1l-.8-7 3.5 3.9c2 2.2 4.2 6.2 5 9m36.2-10.2c-.3.8-.6.5-.6-.6-.1-1.1.2-1.7.5-1.3.3.3.4 1.2.1 1.9m-305.3 3.5c-.4 2.7-1.1 5.7-1.5 6.8-.7 1.6-.8 1.3-.5-1 1.2-7.7 1.7-10.5 2.2-10.5.3 0 .2 2.1-.2 4.7m306.3 2.5c-.3.7-.5.2-.5-1.2s.2-1.9.5-1.3c.2.7.2 1.9 0 2.5m1 5.5c-.3 1-.5.4-.5-1.2 0-1.7.2-2.4.5-1.8.2.7.2 2.1 0 3m-310 7.5c-.2 1.3-.4.5-.4-1.7-.1-2.2.1-3.2.4-2.3.2 1 .2 2.8 0 4m312 4c-.3.7-.5.2-.5-1.2s.2-1.9.5-1.3c.2.7.2 1.9 0 2.5m-313 12c-1.9 28.5 2.4 63.9 11.3 92.8 3.8 12.4 7 20.1 16.2 39.5.9 1.9.8 1.9-.6.2-2.5-3.2-12.6-26.6-16.3-37.7-6.6-20.1-10.4-40.5-11.9-63-.7-11.2.4-44 1.5-44 .3 0 .3 5.5-.2 12.2m242.7-8.6c.3.8.2 1.2-.4.9s-1-1-1-1.6c0-1.4.7-1.1 1.4.7m71.3 1.6c-.3.7-.5.2-.5-1.2s.2-1.9.5-1.3c.2.7.2 1.9 0 2.5m-175.1 2 2.9 3.3-3.2-2.9c-3.1-2.8-3.8-3.6-3-3.6.2 0 1.6 1.5 3.3 3.2m-35.9 1c-.3.7-.5.2-.5-1.2s.2-1.9.5-1.3c.2.7.2 1.9 0 2.5m0 5.5c-.3 1-.5.4-.5-1.2 0-1.7.2-2.4.5-1.8.2.7.2 2.1 0 3m51.6-1c-.7.2-1.9.2-2.5 0-.7-.3-.2-.5 1.2-.5s1.9.2 1.3.5m162.4 7.5c-.3.8-.6.5-.6-.6-.1-1.1.2-1.7.5-1.3.3.3.4 1.2.1 1.9m-215 14.5c-.2 2.1-.4.4-.4-3.7s.2-5.8.4-3.8c.2 2.1.2 5.5 0 7.5m211.2 1.3c0 .8-.7-.5-1.5-3-.7-2.5-1.3-5.4-1.3-6.5s.7.2 1.5 3c.7 2.7 1.3 5.7 1.3 6.5m5.8-4.8c-.3.8-.6.5-.6-.6-.1-1.1.2-1.7.5-1.3.3.3.4 1.2.1 1.9M365.4 565.7c1.5 2.5 2.4 4.8 2.2 5-.3.4-5.6-8.4-5.6-9.3 0-1.3 1.1.2 3.4 4.3m9.7 15.8c3 4.4 7.3 10.5 9.4 13.5 2.2 3 3.2 4.9 2.4 4.2-1.4-1.1-16.2-22.2-18.4-26.2-1.7-3.2 1.3.7 6.6 8.5m20.2 27.1c1.6 1.9 2.5 3.4 2 3.3-.4 0-2.1-1.6-3.6-3.5-1.6-1.9-2.5-3.4-2-3.3.4 0 2.1 1.6 3.6 3.5m9.8 11.1c1.3 1.6 1.2 1.7-.3.4-1.7-1.3-2.2-2.1-1.4-2.1.2 0 1 .8 1.7 1.7m6 6c1.3 1.6 1.2 1.7-.3.4-1.7-1.3-2.2-2.1-1.4-2.1.2 0 1 .8 1.7 1.7m7 7c1.3 1.6 1.2 1.7-.3.4-1-.7-1.8-1.5-1.8-1.7 0-.8.8-.3 2.1 1.3m11.4 9.3c.3.6-.1.7-.9.4-1.8-.7-2.1-1.4-.7-1.4.6 0 1.3.4 1.6 1m30.5 21c.8.5 1.1 1 .5 1-.5 0-1.7-.5-2.5-1s-1-1-.5-1c.6 0 1.7.5 2.5 1"/><path d="M714.2 226c0 1.4.2 1.9.5 1.2.2-.6.2-1.8 0-2.5-.3-.6-.5-.1-.5 1.3M713.2 234.5c0 1.6.2 2.2.5 1.2.2-.9.2-2.3 0-3-.3-.6-.5.1-.5 1.8M671.5 288c-.3.6.1.7 1 .4.8-.4 2.1-.2 2.8.4 2 1.6 6.1 2.6 5.3 1.3-.4-.6-1.7-1.1-2.9-1.2-2-.1-2-.2.3-.9 2.1-.7 1.9-.8-1.7-.9-2.3-.1-4.5.3-4.8.9M682.8 291.7c.6.2 1.8.2 2.5 0 .6-.3.1-.5-1.3-.5s-1.9.2-1.2.5M697 298.4c0 .2.8 1 1.8 1.7 1.5 1.3 1.6 1.2.3-.4s-2.1-2.1-2.1-1.3M708.4 313c.4 1.9 1 5.2 1.3 7.2.3 2.1.9 3.8 1.4 3.8.4 0 .6.7.3 1.5-.4.8-.1 2.1.5 2.8.6.8 1.3 4.4 1.6 8.2s.7 7.1 1 7.3c.6.6.9-6.7.4-8.3-.2-.6-.4-2.8-.4-5-.2-6.6-1.6-14.5-2.6-14.5-.5 0-.9-.6-.9-1.3 0-.6-.8-2.1-1.6-3.2-1.5-1.9-1.6-1.8-1 1.5M715.2 353c0 1.4.2 1.9.5 1.2.2-.6.2-1.8 0-2.5-.3-.6-.5-.1-.5 1.3M781.7 390.6c.2.7 1 1.5 1.8 1.7.7.3 1.5 3.3 2 7.4.4 3.7 1.4 7.7 2.2 8.8 1.5 2 1.5 2 1 0-.3-1.1-.9-4.9-1.2-8.5-.4-3.8-1.2-7-2.1-7.6-.8-.6-1.4-1.6-1.4-2.1s-.6-1-1.4-1-1.2.6-.9 1.3M789.7 403.4c-.5 1.5-.6 3.1-.3 3.4.8.8 1.8-2.5 1.4-4.5-.3-1.3-.6-1-1.1 1.1M786.7 414.9c-.4 1.7-.3 2.1.5 1.3.5-.5.8-1.6.6-2.3-.3-.8-.7-.3-1.1 1"/></svg>