<?xml version="1.0" standalone="no"?>
<!DOCTYPE svg PUBLIC "-//W3C//DTD SVG 20010904//EN"
 "http://www.w3.org/TR/2001/REC-SVG-20010904/DTD/svg10.dtd">
<svg version="1.0" xmlns="http://www.w3.org/2000/svg"
 width="1024.000000pt" height="1024.000000pt" viewBox="0 0 1024.000000 1024.000000"
 preserveAspectRatio="xMidYMid meet">
<metadata>
Created by potrace 1.16, written by Peter Selinger 2001-2019
</metadata>
<g transform="translate(0.000000,1024.000000) scale(0.100000,-0.100000)"
fill="#000000" stroke="none">
<path d="M0 5120 l0 -5120 5120 0 5120 0 0 5120 0 5120 -5120 0 -5120 0 0
-5120z m7280 3055 c8 -5 24 -11 35 -12 10 -2 23 -9 27 -16 4 -6 10 -11 13 -9
15 7 35 1 29 -9 -4 -7 -1 -10 7 -7 13 5 88 -27 99 -41 3 -4 33 -20 67 -36 33
-17 59 -33 56 -37 -2 -5 0 -8 5 -8 9 0 52 -37 169 -146 28 -27 39 -44 31 -47
-7 -2 -1 -8 13 -12 18 -4 32 -19 44 -46 10 -21 22 -36 26 -33 5 3 9 1 9 -5 0
-6 10 -20 23 -32 12 -12 15 -19 7 -15 -9 5 -9 2 2 -7 10 -8 15 -17 11 -20 -3
-4 -2 -7 4 -7 6 0 14 -12 17 -26 5 -17 12 -24 21 -20 8 3 14 2 13 -2 -4 -11
45 -112 54 -112 4 0 8 -7 8 -16 0 -8 5 -12 10 -9 6 3 10 -3 10 -13 0 -11 7
-25 15 -32 9 -7 13 -20 10 -29 -3 -8 -3 -13 0 -9 3 3 17 -4 30 -16 18 -16 21
-24 13 -34 -6 -7 -7 -12 -2 -10 5 2 11 -2 12 -7 2 -6 7 -12 12 -15 4 -3 17
-24 29 -47 12 -24 26 -43 31 -43 6 0 10 -9 10 -20 0 -11 4 -20 9 -20 5 0 8 -8
7 -17 -2 -10 6 -24 16 -32 12 -8 18 -21 15 -32 -3 -12 8 -31 32 -56 20 -20 30
-34 24 -30 -9 5 -13 2 -13 -8 0 -10 5 -13 12 -9 7 5 9 0 6 -14 -3 -12 0 -26 7
-32 8 -6 11 -22 9 -36 -3 -15 -1 -23 5 -20 5 4 9 -6 9 -22 -1 -34 22 -92 37
-92 5 0 1 -7 -9 -15 -11 -8 -15 -15 -9 -15 15 0 23 -73 9 -82 -8 -5 -7 -11 2
-20 17 -17 15 -28 -5 -28 -17 -1 -17 -1 0 -14 10 -8 13 -16 7 -18 -6 -2 -11
-20 -12 -41 -1 -20 -5 -37 -10 -37 -6 0 -8 -6 -6 -12 3 -7 -1 -24 -8 -37 -7
-14 -11 -28 -8 -33 3 -4 1 -8 -5 -8 -6 0 -13 -16 -17 -35 -4 -21 -10 -32 -17
-28 -6 4 -8 0 -4 -11 4 -10 3 -15 -3 -11 -5 3 -12 -6 -16 -20 -3 -13 -10 -22
-15 -19 -5 3 -9 1 -9 -4 0 -5 -15 -26 -34 -46 -34 -36 -54 -47 -40 -23 4 6 4
9 -1 5 -4 -4 -13 -18 -19 -30 -6 -12 -30 -31 -53 -44 -23 -12 -40 -24 -37 -26
2 -3 -9 -6 -26 -7 -57 -3 -70 -5 -70 -11 0 -3 -8 -6 -17 -6 -10 0 -30 -3 -45
-7 -21 -5 -28 -3 -31 10 -3 10 -5 2 -6 -17 -2 -32 -3 -33 -15 -17 -9 12 -16
14 -21 8 -10 -18 -35 -12 -35 8 0 13 -8 18 -27 19 -79 2 -163 25 -163 45 0 5
-4 5 -10 2 -5 -3 -10 -1 -10 4 0 6 -8 11 -19 11 -10 0 -24 7 -31 15 -7 8 -16
12 -21 9 -5 -3 -9 3 -9 13 0 11 -3 14 -8 7 -9 -14 -52 0 -52 17 0 6 -7 9 -15
5 -8 -3 -15 -2 -15 3 0 5 -9 11 -21 14 -14 4 -18 10 -14 19 6 10 5 11 -6 1 -7
-7 -20 -13 -29 -13 -9 0 -11 3 -5 8 6 4 11 13 13 21 3 12 1 12 -14 0 -10 -8
-15 -9 -11 -2 8 13 -28 37 -42 29 -4 -3 -17 1 -27 10 -18 14 -17 14 6 3 25
-12 25 -12 7 9 -11 12 -25 18 -35 15 -9 -4 -13 -2 -9 4 5 7 -1 9 -15 5 -15 -4
-19 -2 -13 7 5 10 2 11 -13 7 -12 -4 -23 -2 -28 5 -4 7 -3 9 3 6 5 -3 10 -1
10 6 0 7 -8 13 -18 13 -10 0 -15 -6 -12 -16 2 -8 -1 -6 -8 5 -18 29 -41 44
-66 45 -14 0 -21 5 -18 13 6 14 -42 39 -51 26 -3 -5 -12 -2 -20 6 -9 8 -12 20
-8 27 5 8 0 7 -11 -2 -17 -13 -18 -13 -13 1 4 10 1 16 -5 16 -30 -1 -48 4 -43
11 2 4 -4 14 -16 21 -16 10 -19 10 -13 -1 4 -7 -2 -3 -12 9 -10 12 -29 25 -43
27 -14 2 -27 5 -30 6 -3 2 -8 2 -11 2 -3 -1 -5 10 -3 24 1 13 -2 22 -7 18 -5
-3 -12 2 -15 11 -4 10 -14 15 -25 12 -10 -3 -24 2 -31 12 -12 14 -11 15 5 2
18 -14 22 -5 8 18 -5 7 -14 10 -20 7 -6 -4 -11 -3 -11 3 0 5 4 11 9 13 4 2 -1
12 -12 23 -11 11 -17 15 -13 8 3 -6 2 -14 -3 -17 -5 -4 -12 3 -16 14 -4 11
-10 18 -15 15 -4 -3 -6 4 -3 15 3 12 0 20 -8 20 -7 0 -9 3 -6 6 4 4 -2 14 -12
23 -10 9 -17 28 -17 43 1 14 -2 24 -6 22 -4 -3 -8 0 -8 5 0 6 -4 11 -10 11
-19 0 -49 39 -45 59 2 14 -5 23 -27 32 -25 10 -27 14 -13 21 14 9 14 12 -8 32
-13 12 -23 30 -21 39 1 9 -1 17 -6 17 -4 0 -6 9 -3 20 3 13 0 20 -8 20 -11 0
-11 2 -1 8 9 6 8 13 -6 28 -19 20 -22 26 -22 45 0 5 -4 8 -9 4 -5 -3 -12 -1
-15 4 -4 5 -1 13 5 17 8 5 9 3 4 -7 -5 -8 -4 -10 0 -6 15 13 15 41 -1 64 -18
28 -18 33 2 33 8 0 12 5 9 10 -4 6 -9 8 -13 6 -4 -2 -7 9 -7 24 0 15 3 26 8
23 7 -4 8 8 10 70 1 15 5 27 9 27 4 0 8 12 8 26 0 17 4 23 12 18 7 -5 9 -2 5
9 -6 16 13 67 25 67 4 0 5 7 1 16 -3 9 -1 19 6 23 7 4 13 17 14 29 0 11 4 19
7 17 3 -2 14 18 24 43 11 26 25 54 33 63 7 9 10 19 6 23 -4 4 3 9 15 13 12 3
22 10 21 17 -4 33 1 39 19 25 9 -7 14 -10 10 -5 -7 8 46 66 61 66 11 0 86 72
84 80 -1 4 10 13 25 21 15 8 33 20 40 27 7 6 17 12 21 12 5 0 39 17 77 38 85
46 162 76 191 74 12 -1 24 2 27 6 6 11 88 8 106 -3z m-1043 -1581 c-3 -3 -12
-4 -19 -1 -8 3 -5 6 6 6 11 1 17 -2 13 -5z m129 -66 l29 -33 -32 29 c-31 28
-38 36 -30 36 2 0 16 -15 33 -32z m524 12 c0 -5 -5 -10 -11 -10 -5 0 -7 5 -4
10 3 6 8 10 11 10 2 0 4 -4 4 -10z m-1352 -6 c-7 -6 -430 -6 -437 1 -2 3 96 5
219 5 123 0 221 -3 218 -6z m726 -8 c41 -17 74 -58 80 -100 17 -105 67 -398
75 -436 6 -25 12 -61 15 -80 5 -28 4 -30 -3 -10 -12 35 -41 164 -41 184 0 9
-4 16 -8 16 -5 0 -7 14 -6 30 1 17 -1 30 -5 30 -3 0 -7 12 -7 28 -2 56 -34
206 -46 213 -9 6 -9 11 0 21 18 22 -13 61 -41 53 -21 -6 -21 -5 -4 9 18 14 18
15 -4 26 -19 11 -21 10 -16 -5 4 -9 3 -15 -3 -13 -5 1 -9 8 -7 13 3 14 -146
25 -155 11 -6 -8 -8 -7 -8 1 0 7 -20 13 -47 16 -27 2 7 4 75 5 85 1 133 -2
156 -12z m-1844 0 c0 -2 -9 -6 -20 -9 -11 -3 -18 -1 -14 4 5 9 34 13 34 5z
m-1003 -38 c-3 -8 -6 -5 -6 6 -1 11 2 17 5 13 3 -3 4 -12 1 -19z m960 -175
c-2 -37 -3 -9 -3 62 0 72 1 102 3 68 2 -34 2 -93 0 -130z m2020 155 c-3 -8 -6
-5 -6 6 -1 11 2 17 5 13 3 -3 4 -12 1 -19z m-2993 -37 c-4 -17 -9 -30 -11 -27
-3 2 -2 19 2 36 9 41 17 33 9 -9z m3013 -53 c-3 -7 -5 -2 -5 12 0 14 2 19 5
13 2 -7 2 -19 0 -25z m-3030 -10 c-3 -8 -6 -5 -6 6 -1 11 2 17 5 13 3 -3 4
-12 1 -19z m1562 -57 c82 -103 82 -218 2 -299 -18 -18 -38 -32 -44 -32 -7 0 2
12 18 26 21 18 24 24 10 19 -60 -21 -77 -23 -112 -13 -57 15 -88 42 -118 101
l-27 52 6 -50 5 -50 -16 35 c-22 50 -20 127 5 177 12 23 27 45 33 49 8 5 8 1
0 -14 -15 -27 -14 -35 3 -29 10 4 15 -10 18 -63 6 -77 29 -120 78 -140 41 -17
82 1 106 45 16 30 17 41 6 107 -6 40 -15 83 -18 96 -10 34 11 27 45 -17z
m1116 -85 c20 -65 19 -102 -4 -151 -32 -70 -95 -112 -157 -102 -23 3 -20 4 12
6 24 0 55 10 74 24 45 30 52 54 8 27 -87 -53 -196 2 -246 124 -12 30 -12 29
-7 -19 4 -41 2 -46 -7 -30 -16 28 -14 125 4 160 19 35 68 84 68 67 0 -7 -4
-12 -9 -12 -14 0 -23 -32 -11 -44 5 -5 10 -30 10 -53 0 -53 19 -92 60 -127 39
-32 71 -33 107 -2 31 27 35 59 21 191 l-8 70 35 -39 c20 -22 42 -62 50 -90z
m362 102 c-3 -8 -6 -5 -6 6 -1 11 2 17 5 13 3 -3 4 -12 1 -19z m-3053 -35 c-4
-27 -11 -57 -15 -68 -7 -16 -8 -13 -5 10 12 77 17 105 22 105 3 0 2 -21 -2
-47z m3063 -25 c-3 -7 -5 -2 -5 12 0 14 2 19 5 13 2 -7 2 -19 0 -25z m10 -55
c-3 -10 -5 -4 -5 12 0 17 2 24 5 18 2 -7 2 -21 0 -30z m-3100 -75 c-2 -13 -4
-5 -4 17 -1 22 1 32 4 23 2 -10 2 -28 0 -40z m3120 -40 c-3 -7 -5 -2 -5 12 0
14 2 19 5 13 2 -7 2 -19 0 -25z m-3130 -120 c-19 -285 24 -639 113 -928 38
-124 70 -201 162 -395 9 -19 8 -19 -6 -2 -25 32 -126 266 -163 377 -66 201
-104 405 -119 630 -7 112 4 440 15 440 3 0 3 -55 -2 -122z m2427 86 c3 -8 2
-12 -4 -9 -6 3 -10 10 -10 16 0 14 7 11 14 -7z m713 -16 c-3 -7 -5 -2 -5 12 0
14 2 19 5 13 2 -7 2 -19 0 -25z m-1751 -20 l29 -33 -32 29 c-31 28 -38 36 -30
36 2 0 16 -15 33 -32z m-359 -10 c-3 -7 -5 -2 -5 12 0 14 2 19 5 13 2 -7 2
-19 0 -25z m0 -55 c-3 -10 -5 -4 -5 12 0 17 2 24 5 18 2 -7 2 -21 0 -30z m516
10 c-7 -2 -19 -2 -25 0 -7 3 -2 5 12 5 14 0 19 -2 13 -5z m1624 -75 c-3 -8 -6
-5 -6 6 -1 11 2 17 5 13 3 -3 4 -12 1 -19z m-2150 -145 c-2 -21 -4 -4 -4 37 0
41 2 58 4 38 2 -21 2 -55 0 -75z m2112 -13 c0 -8 -7 5 -15 30 -7 25 -13 54
-13 65 0 11 7 -2 15 -30 7 -27 13 -57 13 -65z m58 48 c-3 -8 -6 -5 -6 6 -1 11
2 17 5 13 3 -3 4 -12 1 -19z m-2873 -1205 c15 -25 24 -48 22 -50 -3 -4 -56 84
-56 93 0 13 11 -2 34 -43z m97 -158 c30 -44 73 -105 94 -135 22 -30 32 -49 24
-42 -14 11 -162 222 -184 262 -17 32 13 -7 66 -85z m202 -271 c16 -19 25 -34
20 -33 -4 0 -21 16 -36 35 -16 19 -25 34 -20 33 4 0 21 -16 36 -35z m98 -111
c13 -16 12 -17 -3 -4 -17 13 -22 21 -14 21 2 0 10 -8 17 -17z m60 -60 c13 -16
12 -17 -3 -4 -17 13 -22 21 -14 21 2 0 10 -8 17 -17z m70 -70 c13 -16 12 -17
-3 -4 -10 7 -18 15 -18 17 0 8 8 3 21 -13z m114 -93 c3 -6 -1 -7 -9 -4 -18 7
-21 14 -7 14 6 0 13 -4 16 -10z m305 -210 c8 -5 11 -10 5 -10 -5 0 -17 5 -25
10 -8 5 -10 10 -5 10 6 0 17 -5 25 -10z"/>
<path d="M7142 7980 c0 -14 2 -19 5 -12 2 6 2 18 0 25 -3 6 -5 1 -5 -13z"/>
<path d="M7132 7895 c0 -16 2 -22 5 -12 2 9 2 23 0 30 -3 6 -5 -1 -5 -18z"/>
<path d="M6715 7360 c-3 -6 1 -7 10 -4 8 4 21 2 28 -4 20 -16 61 -26 53 -13
-4 6 -17 11 -29 12 -20 1 -20 2 3 9 21 7 19 8 -17 9 -23 1 -45 -3 -48 -9z"/>
<path d="M6828 7323 c6 -2 18 -2 25 0 6 3 1 5 -13 5 -14 0 -19 -2 -12 -5z"/>
<path d="M6970 7256 c0 -2 8 -10 18 -17 15 -13 16 -12 3 4 -13 16 -21 21 -21
13z"/>
<path d="M7084 7110 c4 -19 10 -52 13 -72 3 -21 9 -38 14 -38 4 0 6 -7 3 -15
-4 -8 -1 -21 5 -28 6 -8 13 -44 16 -82 3 -38 7 -71 10 -73 6 -6 9 67 4 83 -2
6 -4 28 -4 50 -2 66 -16 145 -26 145 -5 0 -9 6 -9 13 0 6 -8 21 -16 32 -15 19
-16 18 -10 -15z"/>
<path d="M7152 6710 c0 -14 2 -19 5 -12 2 6 2 18 0 25 -3 6 -5 1 -5 -13z"/>
<path d="M7817 6334 c2 -7 10 -15 18 -17 7 -3 15 -33 20 -74 4 -37 14 -77 22
-88 15 -20 15 -20 10 0 -3 11 -9 49 -12 85 -4 38 -12 70 -21 76 -8 6 -14 16
-14 21 0 5 -6 10 -14 10 -8 0 -12 -6 -9 -13z"/>
<path d="M7897 6206 c-5 -15 -6 -31 -3 -34 8 -8 18 25 14 45 -3 13 -6 10 -11
-11z"/>
<path d="M7867 6091 c-4 -17 -3 -21 5 -13 5 5 8 16 6 23 -3 8 -7 3 -11 -10z"/>
</g>
</svg>
