<?xml version="1.0" standalone="no"?>
<!DOCTYPE svg PUBLIC "-//W3C//DTD SVG 20010904//EN"
 "http://www.w3.org/TR/2001/REC-SVG-20010904/DTD/svg10.dtd">
<svg version="1.0" xmlns="http://www.w3.org/2000/svg"
 width="1024.000000pt" height="1024.000000pt" viewBox="0 0 1024.000000 1024.000000"
 preserveAspectRatio="xMidYMid meet">
<metadata>
Created by potrace 1.16, written by Peter Selinger 2001-2019
</metadata>
<g transform="translate(0.000000,1024.000000) scale(0.100000,-0.100000)"
fill="#000000" stroke="none">
<path d="M0 5120 l0 -5120 5120 0 5120 0 0 5120 0 5120 -5120 0 -5120 0 0
-5120z m6895 3800 c-3 -4 2 -10 10 -14 8 -3 15 0 15 6 0 7 5 6 15 -2 12 -10
15 -10 15 0 0 9 4 9 17 -1 15 -12 16 -12 8 1 -7 12 -6 13 6 5 8 -6 28 -12 44
-14 17 -1 37 -8 45 -15 8 -7 29 -12 46 -12 19 1 30 -3 27 -10 -2 -6 2 -12 9
-13 7 -1 27 -3 43 -5 17 -3 32 -5 35 -6 3 -1 8 -2 13 -1 4 0 7 -3 7 -9 0 -5 7
-10 15 -10 8 0 15 -4 15 -10 0 -5 6 -10 14 -10 8 0 16 -4 18 -10 2 -5 12 -11
23 -12 11 -2 31 -11 45 -21 13 -9 30 -17 37 -17 7 0 12 -3 11 -7 -2 -5 2 -9 7
-11 6 -1 13 -10 16 -19 3 -9 16 -18 29 -20 13 -2 29 -8 35 -13 7 -5 14 -7 17
-4 3 2 8 -2 12 -11 4 -11 2 -14 -7 -9 -8 5 -7 2 2 -9 7 -9 19 -17 26 -17 6 0
36 -26 65 -57 29 -32 50 -51 46 -43 -4 8 -1 6 8 -5 30 -39 37 -45 45 -40 5 2
7 -6 6 -20 -2 -16 1 -22 10 -19 7 3 24 -9 37 -26 12 -17 21 -32 18 -33 -2 -1
11 -18 30 -38 19 -19 40 -33 45 -30 6 3 4 -3 -4 -12 -12 -15 -11 -17 3 -17 9
0 15 -6 13 -12 -1 -7 3 -12 10 -11 7 2 10 -6 8 -16 -3 -15 1 -19 17 -16 16 3
19 0 15 -16 -3 -12 -3 -18 0 -15 10 10 35 -24 29 -40 -3 -8 -2 -12 4 -9 6 3
10 1 10 -5 0 -6 5 -8 12 -4 7 5 8 3 3 -6 -4 -7 -2 -16 5 -20 8 -5 15 -19 17
-31 2 -13 15 -42 29 -66 14 -24 22 -47 19 -52 -3 -5 -1 -12 4 -15 5 -4 12 2
14 11 3 10 5 3 6 -15 1 -19 7 -35 16 -38 8 -4 12 -10 9 -15 -3 -5 2 -17 11
-26 10 -9 15 -26 12 -40 -4 -19 -2 -21 10 -11 13 10 14 8 11 -12 -2 -14 4 -30
12 -37 11 -9 12 -12 2 -13 -7 0 -10 -5 -7 -10 4 -6 11 -8 16 -5 13 9 11 -9 -3
-24 -9 -9 -9 -12 -1 -7 12 6 25 -21 28 -57 1 -11 8 -23 16 -28 10 -6 11 -9 1
-9 -10 0 -10 -5 -2 -21 14 -25 22 -57 21 -83 0 -11 4 -27 10 -38 7 -13 6 -18
-3 -18 -10 0 -9 -3 1 -9 8 -5 16 -15 17 -23 1 -7 6 -22 10 -33 7 -18 6 -19
-12 -5 -18 14 -18 14 -4 -4 19 -25 25 -70 8 -61 -7 4 -4 -1 6 -9 15 -12 17
-19 9 -27 -7 -7 -8 -21 -3 -40 5 -18 5 -31 -2 -35 -5 -3 -8 -14 -5 -24 2 -9 0
-25 -6 -35 -5 -10 -11 -35 -12 -56 -1 -21 -10 -50 -20 -65 -9 -14 -13 -24 -7
-20 6 3 9 -5 8 -19 0 -16 -6 -23 -13 -20 -8 2 -14 -4 -14 -15 -1 -18 -5 -48
-8 -68 0 -5 -10 -18 -21 -30 -11 -12 -16 -24 -10 -27 6 -4 5 -16 -4 -33 -7
-15 -11 -32 -9 -39 2 -6 -1 -15 -8 -19 -8 -5 -9 -3 -4 6 5 9 4 11 -3 6 -7 -4
-12 -14 -12 -22 0 -8 -4 -13 -9 -10 -5 3 -14 -8 -21 -25 -10 -22 -15 -27 -21
-17 -7 11 -9 11 -9 -1 0 -7 -11 -22 -24 -32 -14 -11 -27 -28 -31 -38 -3 -10
-19 -24 -36 -31 -16 -7 -27 -15 -25 -18 10 -9 -25 -34 -40 -28 -10 4 -18 -1
-21 -14 -3 -11 -9 -18 -13 -15 -5 3 -12 -4 -15 -16 -4 -11 -9 -18 -13 -15 -8
9 -42 -25 -42 -41 0 -8 -4 -11 -10 -8 -5 3 -10 2 -10 -4 0 -6 -13 -24 -30 -41
-16 -16 -28 -30 -25 -30 2 0 -9 -13 -23 -28 -41 -43 -67 -76 -67 -87 -1 -5 -6
-9 -12 -8 -7 2 -15 -6 -18 -17 -4 -11 -11 -20 -16 -20 -5 0 -8 -6 -7 -12 2 -7
-3 -12 -9 -10 -7 1 -13 -4 -13 -12 0 -8 -7 -16 -15 -20 -8 -3 -15 -12 -15 -20
0 -10 -6 -13 -17 -9 -10 4 -14 2 -9 -5 3 -6 -3 -13 -14 -17 -11 -3 -19 -12
-17 -18 1 -7 -4 -11 -12 -9 -9 2 -11 -3 -7 -13 3 -9 2 -14 -3 -10 -5 3 -11 2
-13 -2 -5 -13 -126 -113 -136 -113 -5 0 -22 -11 -37 -24 -16 -14 -32 -23 -36
-20 -4 2 -10 0 -14 -6 -4 -6 -10 -8 -15 -5 -11 7 -51 -13 -62 -29 -5 -8 -11
-7 -19 1 -10 10 -17 9 -33 -5 -11 -9 -16 -12 -13 -6 4 7 -1 15 -10 19 -10 3
-19 1 -21 -4 -2 -7 -10 -5 -19 4 -10 11 -19 13 -27 6 -8 -7 -21 -4 -40 9 -16
10 -36 16 -44 12 -9 -3 -13 -1 -9 5 6 10 -27 27 -46 24 -5 -1 -6 2 -4 6 3 5
-1 14 -9 21 -8 7 -14 10 -14 6 0 -4 -13 7 -30 24 -16 18 -30 36 -30 41 0 5
-10 11 -21 14 -14 4 -20 11 -16 21 6 15 -38 66 -56 66 -4 0 -6 4 -3 9 8 12
-35 92 -46 85 -4 -3 -5 2 -2 10 3 9 1 16 -5 16 -6 0 -10 3 -9 8 1 8 -7 32 -29
82 -8 19 -17 46 -20 60 -2 13 -8 27 -13 30 -14 9 -33 63 -31 88 2 13 -3 30 -9
37 -7 8 -10 26 -8 40 3 13 1 22 -4 19 -5 -3 -7 6 -4 20 3 14 0 26 -5 26 -5 0
-9 9 -9 21 0 11 -7 27 -15 35 -8 8 -11 22 -8 31 5 12 3 14 -7 8 -8 -5 -11 -4
-7 2 10 16 -4 74 -16 66 -6 -4 -8 2 -4 16 3 12 0 38 -6 59 -6 20 -10 40 -9 45
4 16 -17 6 -21 -10 -3 -10 -5 -5 -6 12 -1 17 -6 37 -12 45 -12 18 -11 12 36
-249 19 -107 35 -204 34 -215 -2 -29 -11 18 -64 319 -25 143 -53 279 -61 302
-23 64 -51 73 -240 73 -86 0 -155 3 -151 6 3 4 75 7 159 7 84 1 141 3 126 5
-16 2 -28 8 -28 13 0 6 -6 7 -12 3 -10 -6 -10 -5 -1 8 7 8 10 18 6 21 -3 4 -1
7 6 7 8 0 11 -7 6 -17 -5 -14 -3 -15 5 -6 16 15 -28 76 -48 68 -11 -4 -13 2
-10 24 3 20 0 32 -9 35 -9 4 -11 14 -7 33 6 26 5 27 -8 9 -14 -18 -15 -17 -10
12 3 23 0 33 -12 38 -10 4 -13 11 -8 18 8 11 -10 81 -19 72 -2 -2 -5 7 -5 20
-1 13 2 24 7 24 5 0 9 5 9 10 0 6 -13 10 -28 10 -18 0 -29 5 -29 14 0 8 5 14
10 13 5 -1 12 4 15 12 3 9 0 11 -7 6 -8 -4 -11 -1 -9 8 2 9 -6 23 -17 31 -12
9 -15 15 -7 16 9 0 10 5 3 18 -5 10 -9 27 -8 37 2 15 -3 19 -18 17 -15 -2 -17
0 -6 6 9 7 10 11 2 17 -9 5 -9 10 0 21 9 11 9 17 -1 29 -7 8 -9 15 -4 15 5 0
0 8 -11 17 -15 12 -16 14 -3 10 15 -5 15 -3 -2 25 -14 23 -16 36 -9 50 6 11 6
18 0 18 -5 0 -12 -6 -14 -12 -4 -10 -6 -10 -6 0 -1 7 8 16 18 20 16 6 17 9 5
20 -8 7 -14 8 -14 2 0 -5 -4 -10 -9 -10 -5 0 -8 8 -6 18 1 9 7 16 11 15 5 -1
10 12 11 28 1 16 -2 29 -8 29 -6 0 -7 5 -4 10 4 6 10 8 15 5 4 -3 6 5 2 17 -3
14 -2 19 6 14 7 -4 12 -3 12 1 0 5 -9 14 -20 21 -17 10 -18 15 -8 31 7 11 21
23 33 26 12 4 15 8 8 12 -7 2 -13 9 -13 14 0 6 6 7 13 4 6 -3 5 0 -5 6 -15 12
-14 14 7 31 13 10 28 18 34 18 8 0 9 6 2 19 -10 18 1 38 22 40 4 1 7 4 8 9 0
4 7 11 15 15 14 8 13 11 -2 28 -9 10 -12 19 -6 19 6 0 12 -5 14 -10 2 -6 9 -1
16 11 11 17 11 20 0 14 -7 -4 -2 3 12 14 14 11 28 21 32 21 5 0 7 5 5 12 -1 7
4 13 11 14 26 3 27 5 12 15 -12 9 -10 10 9 6 20 -5 25 0 38 33 9 22 19 38 23
35 3 -2 12 5 20 15 8 10 17 17 22 14 4 -3 8 0 8 6 0 6 5 8 11 5 6 -4 9 0 7 11
-2 13 3 19 15 18 9 -1 17 2 17 6 0 5 9 12 20 15 11 4 18 11 15 16 -4 5 1 9 10
9 8 0 23 9 32 20 11 13 19 16 24 8 4 -6 10 -2 14 11 4 15 12 20 22 17 11 -5
13 -2 9 9 -3 9 -1 15 7 14 26 -3 38 1 31 12 -5 8 1 10 19 5 20 -5 27 -2 32 13
4 13 12 18 22 14 10 -4 14 -2 10 4 -5 7 1 9 15 5 16 -4 19 -2 13 8 -6 10 -4
12 8 7 9 -3 24 1 33 11 10 9 19 16 21 15 9 -8 53 -2 49 6 -3 5 7 8 24 7 16 -1
31 1 32 5 2 4 23 9 48 11 29 3 44 9 42 17 -1 7 2 10 8 6 6 -3 8 -10 5 -15z
m1220 -1000 c3 -5 1 -10 -4 -10 -6 0 -11 5 -11 10 0 6 2 10 4 10 3 0 8 -4 11
-10z m-2467 -265 c-3 -3 -9 2 -12 12 -6 14 -5 15 5 6 7 -7 10 -15 7 -18z m92
5 c6 -11 8 -20 6 -20 -3 0 -10 9 -16 20 -6 11 -8 20 -6 20 3 0 10 -9 16 -20z
m-70 -30 c0 -5 -2 -10 -4 -10 -3 0 -8 5 -11 10 -3 6 -1 10 4 10 6 0 11 -4 11
-10z m160 -145 c0 -5 -5 -3 -10 5 -5 8 -10 20 -10 25 0 6 5 3 10 -5 5 -8 10
-19 10 -25z m-1007 -248 c3 -22 2 -35 -4 -32 -5 4 -9 22 -9 42 0 45 5 40 13
-10z m1337 11 c0 -23 -3 -29 -9 -19 -8 12 -4 51 5 51 2 0 4 -15 4 -32z m-253
-20 c-3 -8 -6 -5 -6 6 -1 11 2 17 5 13 3 -3 4 -12 1 -19z m-584 -45 c-67 -2
-179 -2 -250 0 -70 1 -15 3 122 3 138 0 195 -2 128 -3z m619 -98 c-7 -11 -20
29 -20 60 0 12 5 6 12 -15 8 -19 11 -39 8 -45z m48 71 c0 -3 -4 -8 -10 -11 -5
-3 -10 -1 -10 4 0 6 5 11 10 11 6 0 10 -2 10 -4z m228 -7 c50 -1 64 -4 68 -17
3 -10 10 -25 15 -34 12 -24 12 -48 -1 -28 -9 13 -10 13 -10 0 -1 -12 -3 -11
-11 3 -5 9 -7 22 -4 27 3 6 0 10 -9 10 -8 0 -17 -6 -19 -12 -3 -8 -6 -5 -6 6
-1 14 -6 17 -26 12 -25 -6 -36 8 -12 17 6 3 -1 6 -16 6 -26 1 -27 0 -13 -15
22 -21 11 -36 -21 -28 -16 4 -28 2 -34 -7 -6 -10 -9 -7 -9 11 l-1 25 -20 -27
c-11 -16 -26 -28 -32 -28 -7 0 -3 7 7 15 11 8 17 18 13 21 -4 4 -13 1 -22 -6
-13 -11 -19 -8 -17 10 0 3 -13 7 -29 8 -20 2 -29 -2 -29 -13 0 -19 -16 -20
-24 0 -11 28 75 53 164 48 19 -1 63 -3 98 -4z m-1742 -15 c18 -14 18 -15 -4
-4 -12 6 -28 8 -34 4 -7 -4 -8 -3 -4 4 10 16 18 15 42 -4z m644 1 c0 -8 -5
-15 -11 -15 -5 0 -8 4 -5 9 4 5 -27 9 -70 9 -42 1 -79 3 -82 6 -3 3 34 6 81 6
71 0 87 -3 87 -15z m208 -10 c1 -14 -3 -25 -8 -25 -5 0 -6 8 -3 17 5 13 2 15
-11 10 -11 -5 -15 -3 -10 5 5 8 2 9 -12 3 -26 -11 -143 -22 -138 -13 3 5 13 9
22 9 9 1 4 4 -13 8 -19 5 8 8 70 9 100 1 101 1 103 -23z m40 8 c-5 -7 -14 -10
-19 -7 -16 10 -9 23 10 21 15 -1 17 -4 9 -14z m118 5 c3 -4 -19 -8 -49 -10
-42 -2 -53 0 -45 9 9 12 82 12 94 1z m44 2 c0 -5 -2 -10 -4 -10 -3 0 -8 5 -11
10 -3 6 -1 10 4 10 6 0 11 -4 11 -10z m-1126 -212 c-1 -117 -3 -306 -4 -420
-1 -113 -5 -219 -11 -235 -6 -19 -7 14 -4 102 3 72 5 270 6 441 0 262 3 324
13 324 1 0 1 -96 0 -212z m456 133 c0 -27 -18 3 -24 39 l-6 35 15 -30 c8 -16
14 -37 15 -44z m-393 53 c-3 -3 -12 -4 -19 -1 -8 3 -5 6 6 6 11 1 17 -2 13 -5z
m1558 -25 c-8 -12 -35 -12 -35 0 0 11 22 20 33 14 4 -2 5 -9 2 -14z m125 -13
c0 -2 -8 -10 -17 -17 -16 -13 -17 -12 -4 4 13 16 21 21 21 13z m24 -21 c-28
-22 -40 -18 -13 4 13 11 26 17 28 15 3 -2 -4 -11 -15 -19z m-64 -35 c0 -5 -5
-10 -11 -10 -5 0 -7 5 -4 10 3 6 8 10 11 10 2 0 4 -4 4 -10z m180 -4 c0 -3 -4
-8 -10 -11 -5 -3 -10 -1 -10 4 0 6 5 11 10 11 6 0 10 -2 10 -4z m-326 -21 c3
-8 1 -15 -4 -15 -6 0 -10 7 -10 15 0 8 2 15 4 15 2 0 6 -7 10 -15z m19 -62 c8
-16 22 -41 31 -58 9 -16 16 -47 16 -67 0 -43 -16 -91 -29 -84 -4 3 -18 -5 -31
-19 -71 -75 -170 -49 -214 57 -20 48 -20 64 5 113 l20 40 -6 -41 c-11 -75 45
-164 103 -164 11 0 34 13 51 29 16 15 32 26 35 24 2 -2 3 41 2 96 -1 56 -1
101 0 101 1 0 9 -12 17 -27z m-977 -68 c13 -27 24 -65 24 -83 0 -30 -33 -112
-46 -112 -2 0 0 9 6 19 19 36 10 36 -19 1 -26 -32 -33 -35 -84 -35 -67 0 -99
21 -138 87 -24 41 -26 50 -17 92 11 54 28 61 28 11 0 -53 23 -99 63 -123 36
-23 82 -29 92 -12 3 6 11 10 16 10 6 0 7 -5 3 -12 -4 -7 -3 -8 5 -4 6 4 9 11
6 16 -3 4 2 25 11 45 15 36 11 85 -13 170 l-6 20 23 -20 c13 -11 33 -42 46
-70z m1333 -32 c-1 -37 -1 -37 -8 -8 -7 28 -5 45 5 45 2 0 3 -17 3 -37z
m-2934 -3 c3 -5 1 -10 -4 -10 -6 0 -11 5 -11 10 0 6 2 10 4 10 3 0 8 -4 11
-10z m2945 -60 c0 -5 -4 -10 -10 -10 -5 0 -10 5 -10 10 0 6 5 10 10 10 6 0 10
-4 10 -10z m10 -66 c0 -3 -7 -1 -15 6 -8 7 -15 17 -15 22 0 5 7 3 15 -6 8 -8
15 -18 15 -22z m117 -86 c-3 -8 -6 -5 -6 6 -1 11 2 17 5 13 3 -3 4 -12 1 -19z
m-3097 -40 c0 -18 -2 -20 -9 -8 -6 8 -7 18 -5 22 9 14 14 9 14 -14z m3098
-268 c0 -14 -6 7 -14 45 -7 39 -13 79 -12 90 0 11 6 -9 14 -45 7 -36 13 -76
12 -90z m-3101 108 c-3 -8 -6 -5 -6 6 -1 11 2 17 5 13 3 -3 4 -12 1 -19z m0
-50 c-3 -7 -5 -2 -5 12 0 14 2 19 5 13 2 -7 2 -19 0 -25z m4521 7 c-6 -14 -13
-24 -14 -22 -6 6 9 47 17 47 5 0 3 -11 -3 -25z m-4514 -66 c-3 -44 -14 -49
-14 -6 0 21 4 37 8 37 5 0 7 -14 6 -31z m3103 -61 c-3 -7 -5 -2 -5 12 0 14 2
19 5 13 2 -7 2 -19 0 -25z m-2100 -85 c-2 -16 -4 -3 -4 27 0 30 2 43 4 28 2
-16 2 -40 0 -55z m2110 35 c-3 -7 -5 -2 -5 12 0 14 2 19 5 13 2 -7 2 -19 0
-25z m-3100 -55 c-3 -10 -5 -4 -5 12 0 17 2 24 5 18 2 -7 2 -21 0 -30z m3110
5 c-3 -8 -6 -5 -6 6 -1 11 2 17 5 13 3 -3 4 -12 1 -19z m-2120 -185 c-2 -32
-3 -6 -3 57 0 63 1 89 3 58 2 -32 2 -84 0 -115z m-973 94 c4 -29 13 -66 21
-81 8 -16 13 -31 10 -36 -2 -4 7 -42 20 -85 14 -43 25 -84 25 -92 0 -8 5 -11
12 -7 7 4 8 3 4 -4 -4 -6 0 -24 8 -40 8 -16 12 -32 9 -36 -4 -3 -1 -6 5 -6 7
0 11 -3 10 -7 -4 -13 42 -132 57 -147 8 -8 15 -22 15 -30 0 -9 5 -16 11 -16 5
0 7 -4 4 -10 -3 -5 -2 -10 3 -10 5 0 15 -13 22 -30 7 -16 23 -41 35 -56 13
-15 21 -32 19 -39 -3 -6 2 -18 11 -25 8 -7 15 -18 15 -24 0 -7 9 -22 20 -34
12 -12 17 -22 13 -22 -4 0 -1 -6 8 -13 9 -7 17 -16 19 -22 7 -24 53 -86 118
-160 39 -44 68 -82 65 -85 -5 -5 -32 26 -127 145 -172 218 -321 504 -392 754
-38 135 -67 284 -53 276 3 -3 10 -29 13 -58z m3103 31 c-3 -7 -5 -2 -5 12 0
14 2 19 5 13 2 -7 2 -19 0 -25z m10 -60 c-3 -7 -5 -2 -5 12 0 14 2 19 5 13 2
-7 2 -19 0 -25z m10 -50 c-3 -7 -5 -2 -5 12 0 14 2 19 5 13 2 -7 2 -19 0 -25z
m20 -120 c-3 -8 -6 -5 -6 6 -1 11 2 17 5 13 3 -3 4 -12 1 -19z m-2170 -100
c-3 -8 -6 -5 -6 6 -1 11 2 17 5 13 3 -3 4 -12 1 -19z m-10 -340 c-3 -8 -6 -5
-6 6 -1 11 2 17 5 13 3 -3 4 -12 1 -19z m0 -60 c-3 -7 -5 -2 -5 12 0 14 2 19
5 13 2 -7 2 -19 0 -25z m-343 -473 c9 -14 15 -25 13 -25 -2 0 -14 11 -27 25
-13 14 -19 25 -13 25 6 0 18 -11 27 -25z m40 -41 c3 -8 2 -12 -4 -9 -6 3 -10
10 -10 16 0 14 7 11 14 -7z m566 -406 c0 -4 -16 2 -35 13 -19 12 -35 23 -35
25 0 2 16 -4 35 -13 19 -9 35 -20 35 -25z"/>
<path d="M6830 8518 c0 -45 -38 -211 -60 -263 -12 -27 -31 -60 -42 -72 -12
-13 -18 -26 -15 -29 15 -15 79 88 92 146 4 17 10 28 14 25 9 -5 25 204 16 213
-3 3 -5 -6 -5 -20z"/>
<path d="M6825 8200 c-4 -17 -5 -34 -2 -36 2 -3 7 10 11 27 3 18 4 34 2 36 -2
3 -7 -10 -11 -27z"/>
<path d="M7300 8014 l-25 -15 25 7 c14 3 29 10 35 15 15 14 -7 10 -35 -7z"/>
<path d="M6420 8011 c14 -5 64 -21 112 -35 75 -23 95 -34 146 -81 96 -89 120
-157 168 -484 3 -18 7 -31 9 -30 6 7 -23 257 -31 271 -3 4 -1 8 5 8 5 0 12
-14 16 -31 4 -17 9 -28 12 -25 6 6 4 148 -3 191 -3 17 -5 39 -5 50 1 33 -19
83 -36 89 -9 4 -13 13 -9 22 3 8 2 12 -3 9 -5 -3 -12 -1 -16 5 -3 5 -9 10 -13
10 -11 0 -12 -39 -1 -45 5 -4 9 -14 9 -23 -1 -16 -1 -16 -11 1 -5 9 -15 17
-20 17 -6 0 -24 14 -41 30 -30 31 -63 39 -70 18 -3 -9 -24 -6 -79 10 -76 22
-188 41 -139 23z m255 -49 c-3 -3 -11 0 -18 7 -9 10 -8 11 6 5 10 -3 15 -9 12
-12z m141 -43 c13 -21 22 -79 13 -79 -10 0 -19 17 -23 44 -1 8 -5 19 -9 22 -4
4 -7 11 -7 16 0 12 18 10 26 -3z m24 -154 c12 -25 8 -77 -6 -82 -6 -2 -8 11
-6 33 3 21 0 39 -7 44 -8 4 -10 17 -5 36 7 23 9 25 12 9 1 -11 7 -29 12 -40z"/>
<path d="M7200 8001 c0 -5 -12 -8 -26 -5 -16 3 -23 1 -19 -6 4 -6 -6 -13 -24
-16 -16 -4 -32 -13 -35 -20 -4 -10 5 -9 33 6 22 11 58 22 80 26 50 8 64 24 22
24 -17 0 -31 -4 -31 -9z"/>
<path d="M6595 7990 c3 -5 8 -10 11 -10 2 0 4 5 4 10 0 6 -5 10 -11 10 -5 0
-7 -4 -4 -10z"/>
<path d="M5975 7910 c3 -5 8 -10 11 -10 2 0 4 5 4 10 0 6 -5 10 -11 10 -5 0
-7 -4 -4 -10z"/>
<path d="M6976 7823 c-6 -14 -5 -15 5 -6 7 7 10 15 7 18 -3 3 -9 -2 -12 -12z"/>
<path d="M7526 7488 c-3 -7 -7 -25 -10 -40 -3 -14 -9 -34 -12 -45 -5 -15 -4
-16 5 -2 11 17 32 99 25 99 -3 0 -6 -6 -8 -12z"/>
<path d="M7265 7230 c11 -4 43 -13 70 -19 28 -7 63 -20 80 -30 62 -36 105
-133 125 -281 l7 -55 2 45 c1 51 -25 198 -38 214 -9 11 -11 17 -11 38 0 6 -3
8 -6 5 -4 -3 -15 4 -25 17 -27 35 -95 63 -164 69 -33 3 -51 2 -40 -3z"/>
<path d="M7731 7217 c-25 -7 -46 -17 -48 -24 -3 -7 12 -5 44 6 26 10 55 21 63
24 29 10 -12 6 -59 -6z"/>
<path d="M7625 7139 c-4 -6 -5 -12 -2 -15 2 -3 7 2 10 11 7 17 1 20 -8 4z"/>
<path d="M7106 6565 c-4 -20 -10 -44 -13 -52 -4 -10 -2 -14 4 -10 12 7 28 85
20 93 -2 3 -8 -11 -11 -31z"/>
<path d="M6995 6360 c43 -19 85 -54 85 -71 0 -6 3 -8 8 -6 4 3 8 -5 9 -16 4
-56 16 -106 26 -100 9 6 3 95 -9 126 -7 20 -117 87 -141 86 -10 0 -2 -8 22
-19z"/>
<path d="M7244 6365 c-24 -18 -7 -19 26 0 16 9 19 14 9 15 -8 0 -24 -7 -35
-15z"/>
<path d="M7133 6120 c0 -25 2 -35 4 -22 2 12 2 32 0 45 -2 12 -4 2 -4 -23z"/>
<path d="M6246 7129 c3 -5 12 -9 21 -9 19 0 9 13 -12 16 -8 1 -13 -2 -9 -7z"/>
</g>
</svg>
